<mxfile host="app.diagrams.net" modified="2023-10-20T16:49:07.074Z" agent="Mozilla/5.0 (Windows NT 10.0; Win64; x64) AppleWebKit/537.36 (KHTML, like Gecko) Chrome/118.0.0.0 Safari/537.36" version="22.0.6" etag="k0nF43hyAmV5WCYRlrPf" type="github">
  <diagram name="PÃ¡gina-1" id="3f-cTX-ALPFfvWVdy_n0">
    <mxGraphModel>
      <root>
        <mxCell id="0" />
        <mxCell id="1" parent="0" />
      </root>
    </mxGraphModel>
  </diagram>
</mxfile>
